# xmcd
#
# Track frame offsets:
#	150
#	16957
#	31557
#	41162
#	65747
#	85822
#	99557
#	111795
#	131980
#	155567
#	168982
#	189977
#	203062
#	220657
#	224562
#
# Disc length: 3244 seconds
#
# Revision: 0
# Processed by: cddbd v1.5.1PL0 Copyright (c) Steve Scherf et al.
# Submitted via: dBpowerAMP V4.0
#
DISCID=d20caa0f
DTITLE=Urz Karpatz - Tsighindia - Oiseaux de passage
DYEAR=2000
DGENRE=Gypsy
TTITLE0=Avav Pohalia Pashal Tute
TTITLE1=Hij Ratii
TTITLE2=Arakh Tshe! Hal Tu O Sap!
TTITLE3=Tsighindia
TTITLE4=Bihav Hai Tshito Ande Phuv
TTITLE5=Arakliomlan Pe Ulitza
TTITLE6=Ungarom
TTITLE7=Shuhav Shero La Phuvake
TTITLE8=Phirel Oprp Srme
TTITLE9=Tshatsa Opro Yakha
TTITLE10=Tship, Tshirip
TTITLE11=Armania Le Bengheske
TTITLE12=Tshiriklia Nakhel
TTITLE13=Sborizel Anglal E Ghili
TTITLE14=Sao Roma
EXTD=
EXTT0=
EXTT1=
EXTT2=
EXTT3=
EXTT4=
EXTT5=
EXTT6=
EXTT7=
EXTT8=
EXTT9=
EXTT10=
EXTT11=
EXTT12=
EXTT13=
EXTT14=
PLAYORDER=
